<?xml version="1.0" encoding="UTF-8" standalone="no"?>
<svg width="250px" height="250px" viewBox="0 0 250 250" version="1.1" xmlns="http://www.w3.org/2000/svg" xmlns:xlink="http://www.w3.org/1999/xlink" xmlns:sketch="http://www.bohemiancoding.com/sketch/ns">
    <title>icon-soundcloud</title>
    <description>Created with Sketch (http://www.bohemiancoding.com/sketch)</description>
    <defs></defs>
    <g id="Page-1" stroke="none" stroke-width="1" fill="none" fill-rule="evenodd" sketch:type="MSPage">
        <g id="icon-soundcloud" sketch:type="MSArtboardGroup" fill="#333333">
            <path d="M249,139.086859 C249,155.607879 235.621726,169 219.117788,169 L136,169 L136,66.2007456 C139.176503,65.0410291 142.492362,64.1770793 145.919468,63.6418255 C148.600147,63.2233218 151.346019,63 154.145121,63 C181.966284,63 204.773585,84.4813974 206.923152,111.77874 C210.648111,110.108916 214.772601,109.17312 219.117788,109.17312 C235.621726,109.17312 249,122.565839 249,139.086859 L249,139.086859 Z M106,86.0610117 L106,169 L116,169 L116,80 C113.774495,82.4612512 111.773892,85.1302157 110.034368,87.9755858 C108.729575,87.2687588 107.381972,86.6323736 106,86.0610117 L106,86.0610117 Z M120,169 L130,169 L130,68 C126.41423,69.8204663 123.062406,72.0334876 120,74.5835876 L120,169 L120,169 Z M58,96.8788015 L58,169 L68,169 L68,89 C64.2809768,91.1271088 60.914079,93.7886881 58,96.8788015 L58,96.8788015 Z M28,112.246622 L28,168.753972 C29.2281771,168.91086 30.477457,169 31.7496483,169 L37,169 L37,112.471256 C35.2973136,112.162236 33.5433778,112 31.7496483,112 C30.4780599,112 29.2281771,112.089735 28,112.246622 L28,112.246622 Z M14,164.047664 C16.4246322,165.713595 19.1142375,167.052289 22,168 L22,113 C19.1142375,113.947711 16.4239891,115.286405 14,116.952336 L14,164.047664 L14,164.047664 Z M41,113.562932 L41,169 L51,169 L51,104 C48.7503768,107.721582 47.0440157,111.805851 46.0087428,116.149096 C44.4380464,115.132375 42.76123,114.266124 41,113.562932 L41,113.562932 Z M74,169 L84,169 L84,84 C80.5191438,84.4381044 77.1709376,85.2916629 74,86.4986852 L74,169 L74,169 Z M89,169 L99,169 L99,85.2622058 C95.794091,84.4731787 92.4452819,84.0385905 89,84 L89,169 L89,169 Z M10,158 L10,121 C5.64105435,125.967968 3,132.429403 3,139.499112 C3,146.570597 5.64105435,153.03144 10,158 L10,158 Z" id="soundcloud-icon" sketch:type="MSShapeGroup"></path>
        </g>
    </g>
</svg>